PathFileType	4	(X/Y/Z)	E:\3-PhD\Data\MocapData\ElaboratedData\009\pre\dynamicElaborations\RunL2\RunL2.trc
DataRate	CameraRate	NumFrames	NumMarkers	Units	OrigDataRate	DataStartFrame
200	200	4	54	mm	200	562
Frame#	Time	FHD			LBHD			RBHD			C7			T10			CLAV			LSHO			LUUPA			LMUPA			LDUPA			LLEP			LMEP			LRAD			LUL			LRFIN			RSHO			RUPA1			RMUPA			RDUPA			RLEP			RMEP			RRAD			RUL			RUFIN			RASI			USACR			LSACR			RSACR			LTHI1			LTHI2			LTHI3			LTHI4			LTIB1			LTIB2			LTIB3			LTIB4			LLMAL			LHEE			LMT1			LMT2			RTHI			RTHI2			RTHI3			RTHI4			RLFC			RTIB1			RTIB2			RTIB3			RTIB4			RLMAL			RHEE			RMT1			RMT2			RMT5		
		X1	Y1	Z1	X2	Y2	Z2	X3	Y3	Z3	X4	Y4	Z4	X5	Y5	Z5	X6	Y6	Z6	X7	Y7	Z7	X8	Y8	Z8	X9	Y9	Z9	X10	Y10	Z10	X11	Y11	Z11	X12	Y12	Z12	X13	Y13	Z13	X14	Y14	Z14	X15	Y15	Z15	X16	Y16	Z16	X17	Y17	Z17	X18	Y18	Z18	X19	Y19	Z19	X20	Y20	Z20	X21	Y21	Z21	X22	Y22	Z22	X23	Y23	Z23	X24	Y24	Z24	X25	Y25	Z25	X26	Y26	Z26	X27	Y27	Z27	X28	Y28	Z28	X29	Y29	Z29	X30	Y30	Z30	X31	Y31	Z31	X32	Y32	Z32	X33	Y33	Z33	X34	Y34	Z34	X35	Y35	Z35	X36	Y36	Z36	X37	Y37	Z37	X38	Y38	Z38	X39	Y39	Z39	X40	Y40	Z40	X41	Y41	Z41	X42	Y42	Z42	X43	Y43	Z43	X44	Y44	Z44	X45	Y45	Z45	X46	Y46	Z46	X47	Y47	Z47	X48	Y48	Z48	X49	Y49	Z49	X50	Y50	Z50	X51	Y51	Z51	X52	Y52	Z52	X53	Y53	Z53	X54	Y54	Z54	

591	2.950000	-64.479342	1474.329882	-324.167510	-262.933698	1447.526425	-300.332779	-162.548625	1452.289044	-223.585663	-285.666285	1337.646832	-229.372148	-429.542190	1050.187346	-83.296482	-206.648490	1199.820570	-268.794061	-301.969027	1237.769627	-390.064987	-498.089962	1199.935977	-391.201467	-506.357545	1152.205433	-384.175510	-560.545709	1178.116023	-374.202311	-671.437959	1147.683848	-330.777684	-658.400066	1156.801771	-259.007599	-701.292169	897.101237	-268.084425	-775.595859	912.952379	-268.118517	-725.242099	821.279682	-289.794600	-152.179332	1326.320096	-147.446610	-120.432862	1235.102278	1.423152	-86.110949	1203.828374	-2.919208	-103.444412	1192.496235	53.174482	-62.299121	1082.078400	124.370244	-107.231978	1026.194182	93.655065	25.731255	1127.447636	-116.014912	81.762220	1102.688675	-89.521235	73.186343	1183.265550	-144.599279	-265.783202	872.082321	27.525539	-459.861074	965.228191	-49.870623	-477.191398	927.932574	-61.219721	-451.547184	944.783530	-10.368100	-326.957710	658.162317	-272.245448	-253.711607	639.589750	-310.867554	-232.080448	681.212574	-321.593276	-217.403252	589.697685	-303.389717	-6.409358	404.811580	-263.147401	-68.514490	345.114889	-245.378999	-26.183248	352.321580	-250.074867	13.087719	302.537608	-190.199332	-2.815607	168.495969	-96.441022	-35.463105	159.075980	-0.851816	164.938824	156.554120	-100.623166	142.802822	136.666567	-137.427002	-358.045857	693.760676	202.716500	-346.530590	631.803371	219.958333	-321.929234	614.131444	206.997950	-407.496870	579.626761	252.930549	-435.155167	483.089174	296.084205	-523.235611	291.582520	378.832807	-596.673625	300.378843	458.852372	-571.587089	263.203722	443.182996	-605.363925	216.032752	442.440208	-685.658166	202.464934	527.591745	-777.514906	207.405048	523.057328	-634.938825	52.188225	476.607969	-618.567390	57.425306	512.969471	-644.688393	64.311303	575.807134	
592	2.955000	-40.500901	1476.199722	-338.526228	-238.993143	1449.703584	-315.155632	-138.721495	1453.939067	-238.208973	-260.720730	1339.254315	-242.926679	-401.096879	1052.302843	-93.111358	-182.412430	1201.847891	-282.836608	-278.642063	1239.111992	-403.175764	-474.468638	1203.698267	-401.163108	-483.193773	1156.302976	-393.024076	-536.698661	1183.061217	-381.912457	-646.870898	1154.152890	-335.684150	-631.731126	1162.669002	-264.448252	-674.154700	902.260449	-275.621078	-748.610427	917.694998	-273.423190	-698.566559	826.347066	-297.996845	-126.423567	1328.472305	-162.941143	-91.927818	1237.405020	-15.058040	-58.066996	1205.777111	-20.281801	-74.139656	1194.631433	36.215642	-32.885477	1084.318300	107.629687	-78.804886	1028.481437	77.717888	47.942769	1131.209092	-135.412962	104.577470	1107.142720	-110.901361	93.538282	1187.867585	-165.376274	-237.485984	873.064532	16.897899	-430.584774	967.870310	-60.138248	-448.604527	930.753171	-70.420892	-422.228645	947.850687	-19.883751	-300.560240	659.700953	-280.815103	-227.424772	640.034504	-318.906816	-205.465971	681.350128	-329.919004	-191.656502	589.839549	-311.012545	25.984069	405.602140	-276.406463	-32.255030	342.355944	-258.119827	9.426902	351.938249	-264.304907	53.260603	302.133401	-208.201268	47.908481	164.611588	-117.412028	18.556314	152.647102	-21.356909	216.332593	158.439111	-125.655634	194.224863	138.027230	-162.079678	-333.723910	697.823206	192.652993	-324.426398	635.306587	209.761536	-300.641477	616.739113	196.570058	-387.331619	585.611267	243.179532	-419.076473	490.135996	286.223328	-509.204010	299.501793	370.464405	-582.678091	308.789700	450.428087	-557.516243	271.497237	435.090896	-591.068876	224.131899	434.642368	-671.697570	211.604347	519.543990	-762.301140	220.949091	511.977152	-631.184632	54.015305	473.835707	-614.667869	59.806078	510.202774	-641.121520	71.260892	572.031671	
593	2.960000	-16.504658	1478.060161	-352.893388	-215.007089	1451.743285	-329.898413	-114.830826	1455.548417	-252.780144	-235.659851	1340.799990	-256.479886	-372.834258	1054.466370	-103.314408	-158.067583	1203.772869	-296.789862	-255.150988	1240.298953	-416.251886	-450.634390	1206.898094	-411.082217	-459.687612	1159.804333	-401.922912	-512.524950	1187.306629	-389.618648	-621.776847	1159.638393	-340.730588	-604.616152	1167.442665	-270.074985	-646.328887	906.309091	-283.559564	-720.891096	921.190361	-279.214510	-671.084345	830.365504	-306.763940	-100.596609	1330.396046	-178.157026	-63.820468	1239.496112	-31.135729	-30.545116	1207.407495	-37.170368	-45.476659	1196.554439	19.716571	-4.457833	1086.302533	91.537112	-51.503280	1030.620162	62.437976	70.040222	1133.559798	-153.809643	127.029931	1109.852091	-131.066389	114.159879	1190.585203	-185.160903	-209.352137	874.284147	5.993323	-401.425059	970.552579	-71.012169	-420.225312	933.662121	-80.143713	-393.233826	950.994425	-29.871419	-274.204162	660.537171	-289.360525	-201.183908	639.692778	-326.896163	-178.798460	680.630101	-338.188728	-166.066817	589.117070	-318.589820	57.310364	405.673327	-289.227953	2.911233	339.282719	-270.385236	43.821999	351.053312	-278.066011	92.040217	301.558830	-225.814088	96.888212	161.258580	-138.348956	71.068219	147.112467	-41.891288	265.703026	160.703990	-150.824345	243.603256	139.638685	-186.785274	-309.027716	701.967511	182.373885	-301.720489	639.042238	199.441166	-278.663271	619.689525	186.102790	-366.314490	591.564379	233.116742	-401.677043	497.051849	275.937379	-494.006864	307.432897	361.537531	-567.745379	317.266813	441.246032	-542.498566	279.858063	426.310292	-575.853416	232.309790	426.047010	-656.886331	220.926344	510.450091	-746.041074	234.521714	499.491896	-626.375180	56.923240	470.270399	-609.957554	63.196752	506.786490	-636.931847	79.317551	567.213802	
594	2.965000	7.496448	1479.906933	-367.258617	-190.978597	1453.601057	-344.518082	-90.869211	1457.093137	-267.271228	-210.481533	1342.255955	-270.024203	-344.817198	1056.645081	-113.894098	-133.600660	1205.563491	-310.639767	-231.504895	1241.300520	-429.286570	-426.607237	1209.480018	-420.932440	-435.862659	1162.641958	-410.895075	-488.057078	1190.770582	-397.353899	-596.235677	1164.038863	-345.978456	-577.148204	1171.046613	-275.941896	-617.835357	909.200427	-291.889866	-692.464651	923.379399	-285.512602	-642.784789	833.287772	-316.057161	-74.685756	1332.079207	-193.083793	-36.129743	1241.343007	-46.758796	-3.533571	1208.711088	-53.524161	-17.469896	1198.236295	3.738555	23.005868	1088.015458	76.122396	-25.286305	1032.599122	47.838761	92.197181	1134.460195	-171.188870	149.312288	1110.756031	-149.968200	135.277775	1191.349303	-203.971154	-181.411684	875.734223	-5.205960	-372.483240	973.249929	-82.430013	-392.101404	936.606856	-90.404319	-364.626165	954.162618	-40.344946	-247.891900	660.619724	-297.883427	-174.990656	638.558283	-334.858301	-152.085407	679.061928	-346.394129	-140.612101	587.541202	-326.145449	87.561676	405.028962	-301.571263	36.892013	335.912698	-282.101558	76.938100	349.648873	-291.281128	129.302823	300.745760	-242.894687	143.852938	158.333403	-159.008861	121.736274	142.365733	-62.213305	312.798413	163.213983	-175.869804	290.693756	141.380545	-211.293570	-283.992290	706.094301	171.893454	-278.409892	642.902816	189.016717	-255.965028	622.884918	175.627876	-344.428620	597.322509	222.778117	-382.884365	503.626919	265.288795	-477.695901	315.243936	352.099867	-551.933584	325.775926	431.317263	-526.624553	288.225485	416.874711	-559.863082	240.539083	416.686090	-641.412403	230.501116	500.327122	-728.933911	248.068246	485.701010	-620.389912	61.042081	465.815545	-604.331464	67.768422	502.594326	-631.996548	88.532365	561.240666	
